<svg xmlns="http://www.w3.org/2000/svg" fill-rule="evenodd" stroke-linejoin="round" stroke-miterlimit="2" clip-rule="evenodd" viewBox="0 0 64 64" id="tiktok"><rect width="64" height="64" fill="none"></rect><path fill="#aae1f9" d="M37,86L45,86C45.046,86 45.092,86.003 45.136,86.009C45.62,86.049 46.01,86.436 46.046,86.928C46.58,92.482 51.718,99.243 57.101,99.93C57.611,99.982 58,100.412 58,100.925C58,102.797 58,107.022 57.996,108.975C57.996,109.247 57.884,109.508 57.687,109.695C57.49,109.883 57.225,109.982 56.953,109.97C52.945,109.736 49.191,108.176 46,105.751L46,123C46,132.383 38.383,140 29,140C19.617,140 12,132.383 12,123C12,113.617 19.617,106 29,106C29,106 29,106 29,106C29.552,106 30,106.448 30,107C30,108.887 30,113.036 30,115C29.999,115.552 29.552,115.999 29,115.999C29,116 29,116 29,116C25.137,116 22,119.137 22,123C22,126.863 25.137,130 29,130C32.863,130 36,126.863 36,123C36,123 36,92.909 36,87C36,86.448 36.448,86 37,86Z" transform="translate(-2 -82)"></path><path d="M29.048,116.498C29.032,116.499 29.016,116.5 29,116.5C25.413,116.5 22.5,119.413 22.5,123C22.5,126.587 25.413,129.5 29,129.5C32.587,129.5 35.5,126.587 35.5,123C35.5,123 35.5,92.909 35.5,87C35.5,86.172 36.172,85.5 37,85.5L45,85.5C45.064,85.5 45.126,85.504 45.188,85.512C45.91,85.576 46.491,86.156 46.543,86.88C46.854,90.108 48.778,93.752 51.387,96.299C53.1,97.97 55.11,99.172 57.163,99.434C57.923,99.517 58.5,100.159 58.5,100.925C58.5,102.797 58.5,107.023 58.496,108.975C58.496,109.384 58.328,109.775 58.032,110.057C57.737,110.339 57.338,110.488 56.924,110.469C53.148,110.249 49.591,108.883 46.5,106.733L46.5,123C46.5,132.659 38.659,140.5 29,140.5C19.341,140.5 11.5,132.659 11.5,123C11.5,113.341 19.341,105.5 29,105.5C29,105.5 29,105.5 29,105.5C29.828,105.5 30.5,106.172 30.5,107C30.5,108.887 30.5,113.036 30.5,115C30.499,115.812 29.854,116.473 29.048,116.498ZM28.967,115.5C28.978,115.499 28.989,115.499 29,115.499C29.276,115.499 29.5,115.275 29.5,115C29.5,113.036 29.5,108.887 29.5,107C29.5,106.724 29.276,106.5 29,106.5C29,106.5 29,106.5 29,106.5C19.893,106.5 12.5,113.893 12.5,123C12.5,132.107 19.893,139.5 29,139.5C38.107,139.5 45.5,132.107 45.5,123L45.5,105.751C45.5,105.561 45.608,105.387 45.778,105.303C45.948,105.219 46.151,105.238 46.303,105.353C49.414,107.718 53.074,109.243 56.977,109.47C57.112,109.476 57.244,109.427 57.342,109.334C57.44,109.24 57.496,109.111 57.496,108.974C57.5,107.022 57.5,102.797 57.5,100.925C57.5,100.669 57.306,100.454 57.05,100.428L57.037,100.426C54.785,100.139 52.567,98.847 50.689,97.014C47.91,94.303 45.878,90.413 45.547,86.964C45.529,86.72 45.336,86.527 45.095,86.508L45,86.5C45,86.5 37.021,86.5 37.021,86.5C37.021,86.5 37,86.5 37,86.5C36.724,86.5 36.5,86.724 36.5,87C36.5,92.909 36.5,123 36.5,123C36.5,127.139 33.139,130.5 29,130.5C24.861,130.5 21.5,127.139 21.5,123C21.5,118.871 24.843,115.517 28.967,115.5Z" transform="translate(-2 -82)"></path><path fill="#dd636e" d="M37,86L45,86C45.046,86 45.092,86.003 45.136,86.009C45.62,86.049 46.01,86.436 46.046,86.928C46.58,92.482 51.718,99.243 57.101,99.93C57.611,99.982 58,100.412 58,100.925C58,102.797 58,107.022 57.996,108.975C57.996,109.247 57.884,109.508 57.687,109.695C57.49,109.883 57.225,109.982 56.953,109.97C52.945,109.736 49.191,108.176 46,105.751L46,123C46,132.383 38.383,140 29,140C19.617,140 12,132.383 12,123C12,113.617 19.617,106 29,106C29,106 29,106 29,106C29.552,106 30,106.448 30,107C30,108.887 30,113.036 30,115C29.999,115.552 29.552,115.999 29,115.999C29,116 29,116 29,116C25.137,116 22,119.137 22,123C22,126.863 25.137,130 29,130C32.863,130 36,126.863 36,123C36,123 36,92.909 36,87C36,86.448 36.448,86 37,86Z" transform="translate(0 -80)"></path><path d="M29.048,116.498C29.032,116.499 29.016,116.5 29,116.5C25.413,116.5 22.5,119.413 22.5,123C22.5,126.587 25.413,129.5 29,129.5C32.587,129.5 35.5,126.587 35.5,123C35.5,123 35.5,92.909 35.5,87C35.5,86.172 36.172,85.5 37,85.5L45,85.5C45.064,85.5 45.126,85.504 45.188,85.512C45.91,85.576 46.491,86.156 46.543,86.88C46.854,90.108 48.778,93.752 51.387,96.299C53.1,97.97 55.11,99.172 57.163,99.434C57.923,99.517 58.5,100.159 58.5,100.925C58.5,102.797 58.5,107.023 58.496,108.975C58.496,109.384 58.328,109.775 58.032,110.057C57.737,110.339 57.338,110.488 56.924,110.469C53.148,110.249 49.591,108.883 46.5,106.733L46.5,123C46.5,132.659 38.659,140.5 29,140.5C19.341,140.5 11.5,132.659 11.5,123C11.5,113.341 19.341,105.5 29,105.5C29,105.5 29,105.5 29,105.5C29.828,105.5 30.5,106.172 30.5,107C30.5,108.887 30.5,113.036 30.5,115C30.499,115.812 29.854,116.473 29.048,116.498ZM45.5,123L45.5,105.751C45.5,105.561 45.608,105.387 45.778,105.303C45.948,105.219 46.151,105.238 46.303,105.353C49.414,107.718 53.074,109.243 56.977,109.47C57.112,109.476 57.244,109.427 57.342,109.334C57.44,109.24 57.496,109.111 57.496,108.974C57.5,107.022 57.5,102.797 57.5,100.925C57.5,100.669 57.306,100.454 57.05,100.428L57.037,100.426C54.785,100.139 52.567,98.847 50.689,97.014C47.91,94.303 45.878,90.413 45.547,86.964C45.529,86.72 45.336,86.527 45.095,86.508L45,86.5C45,86.5 37.021,86.5 37.021,86.5C37.021,86.5 37,86.5 37,86.5C36.724,86.5 36.5,86.724 36.5,87C36.5,92.909 36.5,123 36.5,123C36.5,127.139 33.139,130.5 29,130.5C24.861,130.5 21.5,127.139 21.5,123C21.5,118.871 24.843,115.517 28.967,115.5C28.978,115.499 28.989,115.499 29,115.499C29.276,115.499 29.5,115.275 29.5,115C29.5,113.036 29.5,108.887 29.5,107C29.5,106.724 29.276,106.5 29,106.5C29,106.5 29,106.5 29,106.5C19.893,106.5 12.5,113.893 12.5,123C12.5,132.107 19.893,139.5 29,139.5C38.107,139.5 45.5,132.107 45.5,123Z" transform="translate(0 -80)"></path><path fill="#f9f6f9" d="M44.202,86C44.864,89.41 47.086,93.089 49.924,95.458C51.643,97.493 53.774,99.086 56,99.706C56,101.793 55.999,105.26 55.996,106.975C55.996,107.247 55.884,107.508 55.687,107.695C55.49,107.883 55.225,107.982 54.953,107.97C50.945,107.736 47.191,106.176 44,103.751L44,121C44,130.383 36.383,138 27,138C22.817,138 18.985,136.486 16.023,133.977C13.514,131.015 12,127.183 12,123C12,113.953 19.082,106.548 28,106.029L28,113C27.999,113.552 27.552,113.999 27,113.999C27,114 27,114 27,114C23.137,114 20,117.137 20,121C20,123.443 21.254,125.595 23.153,126.847C24.405,128.746 26.557,130 29,130C32.863,130 36,126.863 36,123C36,123 36,92.909 36,87C36,86.448 36.448,86 37,86L44.202,86Z" transform="translate(0 -80)"></path><path d="M27.048,114.498C27.032,114.499 27.016,114.5 27,114.5C23.413,114.5 20.5,117.413 20.5,121C20.5,123.269 21.665,125.267 23.428,126.43C23.484,126.467 23.533,126.516 23.57,126.572C24.733,128.335 26.731,129.5 29,129.5C32.587,129.5 35.5,126.587 35.5,123C35.5,123 35.5,92.909 35.5,87C35.5,86.172 36.172,85.5 37,85.5L44.202,85.5C44.442,85.5 44.647,85.67 44.693,85.905C45.335,89.212 47.493,92.777 50.245,95.074L50.306,95.135C51.956,97.09 53.997,98.629 56.134,99.224C56.35,99.285 56.5,99.482 56.5,99.706C56.5,101.794 56.499,105.261 56.496,106.975C56.496,107.384 56.328,107.775 56.032,108.057C55.737,108.339 55.338,108.488 54.924,108.469C51.148,108.249 47.591,106.883 44.5,104.733L44.5,121C44.5,130.659 36.659,138.5 27,138.5C22.694,138.5 18.749,136.942 15.7,134.359L15.641,134.3C13.058,131.251 11.5,127.306 11.5,123C11.5,113.687 18.79,106.064 27.971,105.53C28.108,105.522 28.243,105.571 28.343,105.666C28.443,105.76 28.5,105.892 28.5,106.029C28.5,106.029 28.5,113 28.5,113C28.499,113.812 27.854,114.473 27.048,114.498ZM43.797,86.5L37,86.5C36.724,86.5 36.5,86.724 36.5,87C36.5,92.909 36.5,123 36.5,123C36.5,127.139 33.139,130.5 29,130.5C26.419,130.5 24.142,129.194 22.792,127.208C20.806,125.858 19.5,123.581 19.5,121C19.5,116.871 22.843,113.517 26.967,113.5C26.978,113.499 26.989,113.499 27,113.499C27.276,113.499 27.5,113.275 27.5,113L27.5,106.568C19.094,107.327 12.5,114.4 12.5,123C12.5,127.045 13.958,130.751 16.378,133.622C19.249,136.042 22.955,137.5 27,137.5C36.107,137.5 43.5,130.107 43.5,121L43.5,103.751C43.5,103.561 43.608,103.387 43.778,103.303C43.948,103.219 44.151,103.238 44.303,103.353C47.414,105.718 51.074,107.243 54.977,107.47C55.112,107.476 55.244,107.427 55.342,107.334C55.44,107.24 55.496,107.111 55.496,106.974C55.499,105.358 55.5,102.184 55.5,100.077C53.33,99.372 51.257,97.802 49.57,95.813C46.774,93.465 44.566,89.883 43.797,86.5Z" transform="translate(0 -80)"></path></svg>