<?xml version="1.0" encoding="utf-8"?>
<!-- Generator: Adobe Illustrator 25.4.0, SVG Export Plug-In . SVG Version: 6.00 Build 0)  -->
<svg version="1.1" id="Capa_1" xmlns="http://www.w3.org/2000/svg" xmlns:xlink="http://www.w3.org/1999/xlink" x="0px" y="0px"
	 viewBox="0 0 482.16 385.78" style="enable-background:new 0 0 482.16 385.78;" xml:space="preserve">
<style type="text/css">
	.st0{clip-path:url(#SVGID_00000103251835495177625220000009638160681632331165_);}
	.st1{fill:#FFFFFF;}
	.st2{fill:#F72E06;stroke:#000000;stroke-width:5;stroke-miterlimit:10;}
	.st3{fill:#F72E06;stroke:#000000;stroke-width:3.121;stroke-miterlimit:10;}
	.st4{stroke:#000000;stroke-width:12.4352;stroke-miterlimit:10;}
	.st5{fill:#F72E06;stroke:#000000;stroke-width:4.3123;stroke-miterlimit:10;}
	.st6{fill:#F72E06;}
	.st7{opacity:0.42;}
	.st8{opacity:0.55;fill:url(#SVGID_00000164487818185480354100000014988136065418690720_);}
	.st9{fill:url(#SVGID_00000173842042834287609190000005061761471787620281_);}
	.st10{opacity:0.55;fill:url(#SVGID_00000026150569071642398250000005273510944672429728_);}
	.st11{stroke:#000000;stroke-width:12.6483;stroke-miterlimit:10;}
	.st12{fill:#F72E06;stroke:#000000;stroke-width:4.3862;stroke-miterlimit:10;}
	.st13{opacity:0.55;fill:url(#SVGID_00000017483926516262903730000000117457447518619792_);}
	.st14{fill:url(#SVGID_00000159443205861051665390000007726031024431797164_);}
	.st15{opacity:0.55;fill:url(#SVGID_00000099652677709287972060000013679189117184843950_);}
	.st16{stroke:#000000;stroke-width:9;stroke-miterlimit:10;}
	.st17{opacity:0.42;fill:url(#SVGID_00000036232440022042377130000016883540727257178773_);}
	.st18{opacity:0.42;fill:url(#SVGID_00000172411544285996391800000014022357122887446156_);}
	.st19{opacity:0.42;fill:url(#SVGID_00000129203347006458089080000006987795332718068660_);}
	.st20{fill:#FFFFFF;stroke:#000000;stroke-width:10;stroke-miterlimit:10;}
	.st21{fill:#FFC200;}
	.st22{stroke:#000000;stroke-width:11.0088;stroke-miterlimit:10;}
	.st23{stroke:#000000;stroke-width:12.4917;stroke-miterlimit:10;}
	.st24{fill:#EE4A33;}
	.st25{fill:#FF2600;}
	.st26{opacity:0.42;fill:url(#SVGID_00000152236135426735852050000012554903667938267299_);}
	.st27{opacity:0.42;fill:url(#SVGID_00000031203543229177204050000003168556878165454208_);}
	.st28{opacity:0.42;fill:url(#SVGID_00000064321500603666795040000016745983271410118274_);}
	.st29{fill:none;stroke:#000000;stroke-width:20;stroke-miterlimit:10;}
	.st30{fill:none;stroke:#000000;stroke-width:14.9242;stroke-miterlimit:10;}
	.st31{opacity:0.7;}
	.st32{fill:#FF6700;}
	.st33{fill:none;stroke:#000000;stroke-width:11.5383;stroke-miterlimit:10;}
	.st34{fill:none;stroke:#000000;stroke-width:8.61;stroke-miterlimit:10;}
	.st35{fill:#FF8500;}
	.st36{fill:none;stroke:#000000;stroke-width:7.8228;stroke-miterlimit:10;}
	.st37{stroke:#FFFFFF;stroke-width:30.7342;stroke-miterlimit:10;}
	.st38{stroke:#FFFFFF;stroke-width:44.3464;stroke-linecap:round;stroke-miterlimit:10;}
	.st39{stroke:#000000;stroke-width:32.0253;stroke-miterlimit:10;}
	.st40{stroke:#FFFFFF;stroke-width:40;stroke-linecap:round;stroke-miterlimit:10;}
	.st41{clip-path:url(#SVGID_00000114056542696449293220000004724322738740939420_);}
	.st42{opacity:0.71;fill:url(#SVGID_00000106829429153717408820000014101541421490799763_);}
	.st43{stroke:#000000;stroke-width:19.959;stroke-miterlimit:10;}
	.st44{fill:none;stroke:#FFFFFF;stroke-width:19.959;stroke-miterlimit:10;}
	.st45{fill:none;stroke:#FFFFFF;stroke-width:11.3563;stroke-miterlimit:10;}
	.st46{fill:none;stroke:#FFFFFF;stroke-width:12.4032;stroke-miterlimit:10;}
	.st47{fill:none;stroke:#FFFFFF;stroke-width:6.0705;stroke-miterlimit:10;}
	.st48{stroke:#000000;stroke-width:4.2547;stroke-miterlimit:10;}
</style>
<g>
	<g>
		<path class="st1" d="M27.77,301.94c0-4.73,0.59-7.88,1.78-9.44c1.19-1.56,2.88-2.34,5.08-2.34s3.77,0.54,4.71,1.62
			c0.68,0.78,1.12,1.56,1.33,2.33c0.49,1.8,0.73,4.5,0.73,8.09v3.37h-3.35v-3.77c0-3.28-0.18-5.48-0.53-6.59
			c-0.35-1.11-0.86-1.81-1.51-2.11c-0.35-0.16-0.76-0.24-1.22-0.24c-1.4,0-2.38,0.72-2.92,2.15c-0.54,1.43-0.81,3.69-0.81,6.76
			v15.65c0,3.77,0.24,6.38,0.71,7.82c0.47,1.44,1.42,2.16,2.84,2.16s2.35-0.72,2.78-2.15c0.44-1.43,0.65-4.04,0.65-7.81v-3.13h3.33
			v3.1c0,3.42-0.19,5.87-0.58,7.37c-0.38,1.5-0.82,2.58-1.31,3.23c-1.04,1.39-2.64,2.08-4.81,2.08s-3.81-0.69-4.9-2.06
			c-1.35-1.68-2.02-5.21-2.02-10.58V301.94z"/>
		<path class="st1" d="M57.97,290.65h3.3v39.03h-3.3v-19.65h-7.14v19.65h-3.3v-39.03h3.3v16.9h7.14V290.65z"/>
		<path class="st1" d="M72.34,290.65h3.37l6.94,39.03h-3.19l-1.29-7.92h-7.8l-1.18,7.92h-3.13L72.34,290.65z M77.73,319.03
			l-3.59-22.08h-0.04l-3.3,22.08H77.73z"/>
		<path class="st1" d="M87.44,290.65h6.63c2.68,0,4.46,0.56,5.37,1.69c0.68,0.84,1.11,1.87,1.3,3.09c0.18,1.22,0.28,2.99,0.28,5.31
			c0,2.32-0.27,4.22-0.81,5.69c-0.54,1.47-1.47,2.38-2.78,2.74c0.52,0.09,0.95,0.25,1.31,0.48c0.36,0.23,0.67,0.62,0.95,1.16
			c0.87,1.7,1.31,5.88,1.31,12.55c0,2.76,0.03,4.36,0.08,4.78s0.19,0.93,0.41,1.54h-3.28c-0.24-0.44-0.38-1.28-0.42-2.52
			s-0.07-3.2-0.07-5.91v-4.3c0-2.72-0.17-4.45-0.5-5.19s-1.32-1.11-2.96-1.11l-3.5-0.22v19.25h-3.3V290.65z M97.71,300.07
			c0-1.97-0.09-3.41-0.28-4.32s-0.5-1.54-0.93-1.86c-0.44-0.32-1.13-0.49-2.07-0.49h-3.7v14.81h3.46c1.12,0,1.89-0.19,2.29-0.58
			c0.41-0.38,0.71-1.02,0.92-1.92s0.31-2.68,0.31-5.35V300.07z"/>
		<path class="st1" d="M107.46,290.65h3.3v36.41h6.92v2.62h-10.22V290.65z"/>
		<path class="st1" d="M122.03,290.65h3.3v39.03h-3.3V290.65z"/>
		<path class="st1" d="M132.81,290.65h10.31v2.57h-7.01v15.26h6.59v2.68h-6.59v15.9h6.94v2.62h-10.24V290.65z"/>
		<path class="st1" d="M147.73,290.63h3.5l-1.44,14.1h-0.73L147.73,290.63z"/>
		<path class="st1" d="M156.11,296.64c0.22-2.11,0.85-3.72,1.87-4.82c1.03-1.1,2.63-1.65,4.82-1.65c2.19,0,3.71,0.55,4.57,1.64
			c0.47,0.59,0.84,1.18,1.11,1.77c0.56,1.2,0.85,4.05,0.87,8.56v2.2h-3.39v-2.44c0-3.43-0.11-5.51-0.33-6.23s-0.45-1.27-0.69-1.64
			c-0.43-0.68-1.2-1.02-2.31-1.02c-2.25,0-3.37,2.09-3.37,6.28c0,1.46,0.14,2.46,0.42,2.98c0.28,0.52,0.49,0.94,0.63,1.23
			c0.14,0.3,1.08,1.32,2.83,3.06l2.13,2.15c3.15,3.24,4.72,6.95,4.72,11.14c0,4.19-0.6,6.95-1.81,8.28c-1.21,1.33-2.99,2-5.36,2
			c-3.64,0-5.73-2.2-6.28-6.59c-0.19-1.48-0.29-3.3-0.29-5.45v-4.06h3.37v3.99c0,3.52,0.23,5.94,0.7,7.27c0.47,1.33,1.42,2,2.85,2
			s2.35-0.43,2.74-1.3c0.39-0.86,0.61-1.91,0.64-3.14c0.04-1.23,0.06-2.54,0.06-3.95c0-2.9-1.15-5.46-3.44-7.69l-2.26-2.15
			c-1.98-1.94-3.3-3.57-3.97-4.89s-1-2.67-1-4.04C155.96,298.76,156.01,297.6,156.11,296.64z"/>
		<path class="st1" d="M182.01,301.94c0-4.73,0.59-7.88,1.78-9.44c1.19-1.56,2.88-2.34,5.08-2.34s3.77,0.54,4.71,1.62
			c0.68,0.78,1.12,1.56,1.33,2.33c0.49,1.8,0.73,4.5,0.73,8.09v3.37h-3.35v-3.77c0-3.28-0.18-5.48-0.53-6.59
			c-0.35-1.11-0.86-1.81-1.51-2.11c-0.35-0.16-0.76-0.24-1.22-0.24c-1.4,0-2.38,0.72-2.92,2.15c-0.54,1.43-0.81,3.69-0.81,6.76
			v15.65c0,3.77,0.24,6.38,0.71,7.82c0.47,1.44,1.42,2.16,2.84,2.16s2.35-0.72,2.78-2.15c0.44-1.43,0.65-4.04,0.65-7.81v-3.13h3.33
			v3.1c0,3.42-0.19,5.87-0.58,7.37c-0.38,1.5-0.82,2.58-1.31,3.23c-1.04,1.39-2.64,2.08-4.81,2.08s-3.81-0.69-4.9-2.06
			c-1.35-1.68-2.02-5.21-2.02-10.58V301.94z"/>
		<path class="st1" d="M201.19,301.56c0-4.72,0.59-7.79,1.77-9.24s3-2.16,5.46-2.16c2.45,0,4.15,0.8,5.08,2.39
			c0.62,1.08,1.01,2.34,1.18,3.77c0.16,1.43,0.24,3.18,0.24,5.23v16.61c0,3.38-0.2,5.77-0.61,7.15c-0.41,1.38-0.86,2.37-1.36,2.96
			c-1.06,1.23-2.68,1.84-4.86,1.84c-3.24,0-5.26-1.4-6.08-4.19c-0.55-1.83-0.82-4.42-0.82-7.76V301.56z M211.61,301.29
			c0-3.1-0.23-5.28-0.68-6.54c-0.45-1.26-1.37-1.88-2.76-1.88s-2.35,0.65-2.88,1.94s-0.8,3.45-0.8,6.46v16.9
			c0,3.59,0.18,5.89,0.55,6.9c0.37,1.01,0.78,1.65,1.23,1.93c0.45,0.28,1.04,0.42,1.78,0.42s1.33-0.14,1.77-0.42
			c0.44-0.28,0.85-0.92,1.22-1.92c0.37-1,0.55-3.3,0.55-6.91V301.29z"/>
		<path class="st1" d="M221.43,290.65h3.3v36.41h6.92v2.62h-10.22V290.65z"/>
		<path class="st1" d="M235.6,290.65h3.3v36.41h6.92v2.62H235.6V290.65z"/>
		<path class="st1" d="M249.77,290.65h10.31v2.57h-7.01v15.26h6.59v2.68h-6.59v15.9h6.94v2.62h-10.24V290.65z"/>
		<path class="st1" d="M264.92,301.94c0-4.73,0.59-7.88,1.78-9.44c1.19-1.56,2.88-2.34,5.08-2.34s3.77,0.54,4.71,1.62
			c0.68,0.78,1.12,1.56,1.33,2.33c0.49,1.8,0.73,4.5,0.73,8.09v3.37h-3.35v-3.77c0-3.28-0.18-5.48-0.53-6.59
			c-0.35-1.11-0.86-1.81-1.51-2.11c-0.35-0.16-0.76-0.24-1.22-0.24c-1.4,0-2.38,0.72-2.92,2.15c-0.54,1.43-0.81,3.69-0.81,6.76
			v15.65c0,3.77,0.24,6.38,0.71,7.82c0.47,1.44,1.42,2.16,2.84,2.16s2.35-0.72,2.78-2.15c0.44-1.43,0.65-4.04,0.65-7.81v-3.13h3.33
			v3.1c0,3.42-0.19,5.87-0.58,7.37c-0.38,1.5-0.82,2.58-1.31,3.23c-1.04,1.39-2.64,2.08-4.81,2.08s-3.81-0.69-4.9-2.06
			c-1.35-1.68-2.02-5.21-2.02-10.58V301.94z"/>
		<path class="st1" d="M282.01,290.65h11.02v2.57h-3.66v36.45h-3.28v-36.45h-4.08V290.65z"/>
		<path class="st1" d="M297.87,290.65h3.3v39.03h-3.3V290.65z"/>
		<path class="st1" d="M308.64,290.65h5.7c2.34,0,4.03,0.4,5.09,1.2c1.06,0.8,1.72,2.2,1.99,4.21c0.12,0.89,0.18,2,0.2,3.33v0.51
			c0,2.53-0.16,4.46-0.49,5.79s-1,2.33-2.02,2.99c1.15,0.56,1.95,1.67,2.38,3.32c0.44,1.65,0.65,3.71,0.65,6.2v0.69
			c-0.06,3.8-0.55,6.55-1.46,8.25c-0.92,1.7-2.7,2.55-5.34,2.55h-6.7V290.65z M314.43,293.56h-2.48v13.86h2.97
			c1.02,0,1.7-0.11,2.05-0.33s0.59-0.48,0.72-0.78c0.41-0.93,0.62-2.76,0.62-5.49s-0.14-4.46-0.41-5.2
			c-0.27-0.74-0.64-1.27-1.1-1.59C316.35,293.71,315.55,293.56,314.43,293.56z M315.52,310.07h-3.57v16.76h3.5
			c1.08,0,1.87-0.36,2.37-1.06c0.5-0.71,0.8-1.82,0.89-3.33c0.09-1.51,0.13-2.79,0.13-3.86v-1.84c0-2.19-0.23-3.85-0.68-4.98
			S316.83,310.07,315.52,310.07z"/>
		<path class="st1" d="M328.27,290.65h3.3v36.41h6.92v2.62h-10.22V290.65z"/>
		<path class="st1" d="M342.44,290.65h10.31v2.57h-7.01v15.26h6.59v2.68h-6.59v15.9h6.94v2.62h-10.24V290.65z"/>
		<path class="st1" d="M364.26,296.64c0.22-2.11,0.85-3.72,1.87-4.82c1.03-1.1,2.63-1.65,4.82-1.65c2.19,0,3.71,0.55,4.57,1.64
			c0.47,0.59,0.84,1.18,1.11,1.77c0.56,1.2,0.85,4.05,0.87,8.56v2.2h-3.39v-2.44c0-3.43-0.11-5.51-0.33-6.23s-0.45-1.27-0.69-1.64
			c-0.43-0.68-1.2-1.02-2.31-1.02c-2.25,0-3.37,2.09-3.37,6.28c0,1.46,0.14,2.46,0.42,2.98c0.28,0.52,0.49,0.94,0.63,1.23
			c0.14,0.3,1.08,1.32,2.83,3.06l2.13,2.15c3.15,3.24,4.72,6.95,4.72,11.14c0,4.19-0.6,6.95-1.81,8.28c-1.21,1.33-2.99,2-5.36,2
			c-3.64,0-5.73-2.2-6.28-6.59c-0.19-1.48-0.29-3.3-0.29-5.45v-4.06h3.37v3.99c0,3.52,0.23,5.94,0.7,7.27c0.47,1.33,1.42,2,2.85,2
			s2.35-0.43,2.74-1.3c0.39-0.86,0.61-1.91,0.64-3.14c0.04-1.23,0.06-2.54,0.06-3.95c0-2.9-1.15-5.46-3.44-7.69l-2.26-2.15
			c-1.98-1.94-3.3-3.57-3.97-4.89s-1-2.67-1-4.04C364.1,298.76,364.15,297.6,364.26,296.64z"/>
		<path class="st1" d="M393.7,290.65h3.3v39.03h-3.3v-19.65h-7.14v19.65h-3.3v-39.03h3.3v16.9h7.14V290.65z"/>
		<path class="st1" d="M403.53,301.56c0-4.72,0.59-7.79,1.77-9.24s3-2.16,5.46-2.16c2.45,0,4.15,0.8,5.08,2.39
			c0.62,1.08,1.01,2.34,1.18,3.77c0.16,1.43,0.24,3.18,0.24,5.23v16.61c0,3.38-0.2,5.77-0.61,7.15c-0.41,1.38-0.86,2.37-1.36,2.96
			c-1.06,1.23-2.68,1.84-4.86,1.84c-3.24,0-5.26-1.4-6.08-4.19c-0.55-1.83-0.82-4.42-0.82-7.76V301.56z M413.95,301.29
			c0-3.1-0.23-5.28-0.68-6.54c-0.45-1.26-1.37-1.88-2.76-1.88s-2.35,0.65-2.88,1.94s-0.8,3.45-0.8,6.46v16.9
			c0,3.59,0.18,5.89,0.55,6.9c0.37,1.01,0.78,1.65,1.23,1.93c0.45,0.28,1.04,0.42,1.78,0.42s1.33-0.14,1.77-0.42
			c0.44-0.28,0.85-0.92,1.22-1.92c0.37-1,0.55-3.3,0.55-6.91V301.29z"/>
		<path class="st1" d="M445.21,290.65h3.13l-4.72,39.03h-3.26l-4.83-32.11l-5.19,32.11h-3.04l-5.52-39.03h3.24l4.08,31.89
			l4.88-31.89h2.75l5.21,31.89L445.21,290.65z"/>
	</g>
	<line class="st46" x1="24.8" y1="273.58" x2="448.26" y2="273.58"/>
	<g>
		<g>
			<g>
				<polygon class="st24" points="68.36,244.39 37.7,213.78 37.7,99.47 68.34,68.64 145.29,68.64 175.92,99.41 175.92,148.12 
					113.52,148.12 113.52,123.35 100.11,123.35 100.11,189.68 113.52,189.68 113.52,166.04 175.92,166.04 175.92,213.74 
					145.27,244.39 				"/>
				<path d="M141.25,78.35l24.96,25.07v34.98h-42.97v-19.74l-4.88-5.03h-22.9l-5.07,5.06v75.84l5.07,4.87h22.9l4.88-4.88v-18.77
					h42.97v33.97l-24.96,24.96H72.38l-24.96-24.93V103.47l24.96-25.12H141.25 M149.32,58.92h-8.07H72.38h-8.08l-5.7,5.73
					L33.64,89.78l-5.65,5.68v8.01v106.28v8.06l5.7,5.69l24.96,24.93l5.69,5.68h8.04h68.87h8.05l5.69-5.69l24.96-24.96l5.69-5.69
					v-8.05v-33.97v-17.91v-19.43v-34.98V95.4l-5.66-5.69l-24.96-25.07L149.32,58.92L149.32,58.92z"/>
			</g>
			<g>
				<polygon class="st24" points="198.59,244.39 167.94,213.78 167.94,99.47 198.57,68.64 275.52,68.64 306.16,99.41 306.16,148.12 
					243.75,148.12 243.75,123.35 230.34,123.35 230.34,189.68 243.75,189.68 243.75,166.04 306.16,166.04 306.16,213.74 
					275.51,244.39 				"/>
				<path d="M271.49,78.35l24.96,25.07v34.98h-42.97v-19.74l-4.88-5.03h-22.9l-5.07,5.06v75.84l5.07,4.87h22.9l4.88-4.88v-18.77
					h42.97v33.97l-24.96,24.96h-68.87l-24.96-24.93V103.47l24.96-25.12H271.49 M279.56,58.92h-8.07h-68.87h-8.08l-5.7,5.73
					l-24.96,25.12l-5.65,5.68v8.01v106.28v8.06l5.7,5.69l24.96,24.93l5.69,5.68h8.04h68.87h8.05l5.69-5.69l24.96-24.96l5.69-5.69
					v-8.05v-33.97v-17.91v-19.43v-34.98V95.4l-5.66-5.69l-24.96-25.07L279.56,58.92L279.56,58.92z"/>
			</g>
			<g>
				<path class="st24" d="M328.82,244.39l-30.65-30.65v-43.77h16.45l-16.45-16.42V99.44l30.63-30.8h76.95L436.4,99.4v44.4h-16.37
					l16.37,16.49v53.44l-30.65,30.65H328.82z M373.99,189.68v-5.53h-13.41v5.53H373.99z M373.99,129.44v-6.09h-13.41v6.09H373.99z"
					/>
				<path d="M401.72,78.35l24.96,25.06v30.68H383.7v-15.44l-4.88-5.02h-22.9l-5.07,5.03v15.65l5.07,4.84h45.79l24.96,25.15v45.41
					l-24.96,24.96h-68.87l-24.96-24.96v-30.03h42.97v14.64l5.07,5.07h22.9l4.88-4.88v-15.01l-4.88-5.07h-45.98l-24.96-24.91v-46.08
					l24.96-25.1H401.72 M409.79,58.92h-8.07h-68.87h-8.08l-5.7,5.73l-24.96,25.1l-5.65,5.68v8.02v46.08v8.06l2.68,2.67h-2.68v19.43
					v30.03v8.05l5.69,5.69l24.96,24.96l5.69,5.69h8.05h68.87h8.05l5.69-5.69l24.96-24.96l5.69-5.69v-8.05V164.3v-8.01l-2.75-2.77
					h2.75v-19.43v-30.68v-8.03l-5.66-5.69l-24.96-25.06L409.79,58.92L409.79,58.92z"/>
			</g>
		</g>
		<g>
			<g>
				<polygon class="st25" points="70.64,238.89 43.21,211.49 43.21,101.74 70.63,74.15 143,74.15 170.42,101.68 170.42,142.61 
					119.03,142.61 119.03,120.37 116.58,117.84 97.2,117.84 94.6,120.44 94.6,192.74 97.15,195.19 116.61,195.19 119.03,192.78 
					119.03,171.54 170.42,171.54 170.42,211.46 142.99,238.89 				"/>
				<path class="st1" d="M141.25,78.35l24.96,25.07v34.98h-42.97v-19.74l-4.88-5.03h-22.9l-5.07,5.06v75.84l5.07,4.87h22.9
					l4.88-4.88v-18.77h42.97v33.97l-24.96,24.96H72.38l-24.96-24.93V103.47l24.96-25.12H141.25 M144.75,69.94h-3.5H72.38h-3.5
					l-2.47,2.48L41.45,97.54L39,100v3.47v106.28v3.49l2.47,2.47l24.96,24.93l2.46,2.46h3.48h68.87h3.49l2.46-2.47l24.96-24.96
					l2.46-2.47v-3.49v-33.97v-8.42h-8.42h-42.97h-8.42v8.42v15.23H98.85l-0.04-0.04v-68.76l0.13-0.13h15.85l0.02,0.02v16.33v8.42
					h8.42h42.97h8.42v-8.42v-34.98v-3.48l-2.45-2.46l-24.96-25.07L144.75,69.94L144.75,69.94z"/>
			</g>
			<g>
				<polygon class="st25" points="200.87,238.89 173.45,211.49 173.45,101.74 200.86,74.15 273.23,74.15 300.65,101.68 
					300.65,142.61 249.26,142.61 249.26,120.37 246.81,117.84 227.44,117.84 224.84,120.44 224.84,192.74 227.39,195.19 
					246.85,195.19 249.26,192.78 249.26,171.54 300.65,171.54 300.65,211.46 273.23,238.89 				"/>
				<path class="st1" d="M271.49,78.35l24.96,25.07v34.98h-42.97v-19.74l-4.88-5.03h-22.9l-5.07,5.06v75.84l5.07,4.87h22.9
					l4.88-4.88v-18.77h42.97v33.97l-24.96,24.96h-68.87l-24.96-24.93V103.47l24.96-25.12H271.49 M274.98,69.94h-3.5h-68.87h-3.5
					l-2.47,2.48l-24.96,25.12l-2.45,2.46v3.47v106.28v3.49l2.47,2.47l24.96,24.93l2.46,2.46h3.48h68.87h3.49l2.46-2.47l24.96-24.96
					l2.46-2.47v-3.49v-33.97v-8.42h-8.42h-42.97h-8.42v8.42v15.23h-15.97l-0.04-0.04v-68.76l0.13-0.13h15.85l0.02,0.02v16.33v8.42
					h8.42h42.97h8.42v-8.42v-34.98v-3.48l-2.45-2.46l-24.96-25.07L274.98,69.94L274.98,69.94z"/>
			</g>
			<g>
				<path class="st25" d="M331.1,238.89l-27.42-27.42v-35.98h24.26l-24.26-24.21v-49.56l27.42-27.57h72.37l27.42,27.53v36.62H406.8
					l24.09,24.27v48.89l-27.43,27.42H331.1z M377.08,195.19l2.41-2.41V181.2l-2.46-2.56h-21.96v13.94l2.6,2.6H377.08z M379.5,134.95
					v-14.59l-2.45-2.52h-19.38l-2.59,2.57v12.1l2.55,2.43H379.5z"/>
				<path class="st1" d="M401.72,78.35l24.96,25.06v30.68H383.7v-15.44l-4.88-5.02h-22.9l-5.07,5.03v15.65l5.07,4.84h45.79
					l24.96,25.15v45.41l-24.96,24.96h-68.87l-24.96-24.96v-30.03h42.97v14.64l5.07,5.07h22.9l4.88-4.88v-15.01l-4.88-5.07h-45.98
					l-24.96-24.91v-46.08l24.96-25.1H401.72 M405.22,69.94h-3.5h-68.87h-3.5l-2.47,2.48l-24.96,25.1l-2.45,2.46v3.47v46.08v3.49
					l2.47,2.47l15.82,15.79h-9.88h-8.42v8.42v30.03v3.49l2.46,2.47l24.96,24.96l2.46,2.47h3.49h68.87h3.49l2.46-2.46l24.96-24.96
					l2.47-2.46v-3.49V164.3v-3.47l-2.44-2.46l-15.75-15.87h9.78h8.42v-8.42v-30.68v-3.48l-2.45-2.46l-24.96-25.06L405.22,69.94
					L405.22,69.94z M359.4,122.05h15.87l0.02,0.02v8.67h-15.98l-0.03-0.03v-8.55L359.4,122.05L359.4,122.05z M359.28,182.85h15.97
					l0.04,0.04v8.08h-15.87l-0.14-0.14V182.85L359.28,182.85z"/>
			</g>
		</g>
	</g>
</g>
</svg>
